<?xml version="1.0" encoding="utf-8"?>
<?xml-stylesheet type="text/xsl" href="rss1.xsl"?>
<rss version="2.0" xmlns:atom="http://www.w3.org/2005/Atom" xmlns:content="http://purl.org/rss/1.0/modules/content/" xmlns:dc="http://purl.org/dc/elements/1.1/" xmlns:media="http://search.yahoo.com/mrss/">
<channel>
 <title>Getty</title>
 <link>http://www.gettyimg.com/</link>
 <atom:link href="http://www.gettyimg.com/" rel="self" type="application/rss+xml" />

 
                <item>
                <title><![CDATA[【UPSCALED】Red Velvet - Rookie [4K.AI.UPSCALE.x265.10bit]]]></title>
                <link><![CDATA[https://sharemania.us/threads/red-velvet-rookie-4k-ai-upscale-x265-10bit.228835/]]></link>
                <description><![CDATA[<article>
<blockquote class="messageText SelectQuoteContainer ugc baseHtml">
<img src="https://i.imgur.com/HiTHU4d.png" class="bbCodeImage LbImage" alt="[​IMG]" data-url="https://i.imgur.com/HiTHU4d.png" style=""><br>
<img src="https://i.imgur.com/dB7SIci.png" class="bbCodeImage LbImage" alt="[​IMG]" data-url="https://i.imgur.com/dB7SIci.png" style=""><br>
<img src="https://i.imgur.com/XfoZyQl.jpg" class="bbCodeImage LbImage" alt="[​IMG]" data-url="https://i.imgur.com/XfoZyQl.jpg" style=""><br>
<br>
<div class="bbCodeBlock bbCodeCode">
<div class="type">Code:</div>
<pre>General
Format                                   : Matroska
Format version                           : Version 4
File size                                : 365 MiB
Duration                                 : 3 min 51 s
Overall bit rate                         : 13.2 Mb/s
Frame rate                               : 29.970 FPS

Video
ID                                       : 1
Format                                   : HEVC
Format/Info                              : High Efficiency Video Coding
Format profile                           : Main 10@L5.1@High
Codec ID                                 : V_MPEGH/ISO/HEVC
Duration                                 : 3 min 51 s
Bit rate                                 : 12.5 Mb/s
Width                                    : 3 840 pixels
Height                                   : 1 726 pixels
Display aspect ratio                     : 2.225
Frame rate mode                          : Constant
Frame rate                               : 29.970 (30000/1001) FPS
Color space                              : YUV
Chroma subsampling                       : 4:2:0 (Type 0)
Bit depth                                : 10 bits
Bits/(Pixel*Frame)                       : 0.063
Stream size                              : 346 MiB (95%)
Default                                  : Yes
Forced                                   : No
Color range                              : Limited
Color primaries                          : BT.709
Transfer characteristics                 : BT.709
Matrix coefficients                      : BT.709

Audio
ID                                       : 2
Format                                   : AC-3
Format/Info                              : Audio Coding 3
Commercial name                          : Dolby Digital
Codec ID                                 : A_AC3
Duration                                 : 3 min 51 s
Bit rate mode                            : Constant
Bit rate                                 : 448 kb/s
Channel(s)                               : 2 channels
Channel layout                           : L R
Sampling rate                            : 48.0 kHz
Frame rate                               : 31.250 FPS (1536 SPF)
Compression mode                         : Lossy
Delay relative to video                  : -5 ms
Stream size                              : 12.4 MiB (3%)
Title                                    : Stereo
Service kind                             : Complete Main
Default                                  : Yes
Forced                                   : No</pre>
</div><div style="text-align: center">
<div class="bbCodeBlock bbCodeVfcHH HiddenContent">
<div class="attribution type">Hidden Content:</div>
<blockquote>You must reply before you can see the hidden data contained here.</blockquote>
</div></div>
<div class="messageTextEndMarker">&nbsp;</div>
</blockquote>
</article>]]></description>
                <author><![CDATA[Librious]]></author>
                </item>

                
                <item>
                <title><![CDATA[【Albums (lossless)】FLAC - STING - 1985 - The Dream of the Blue Turtles [24Bit-44.1kHz]]]></title>
                <link><![CDATA[https://sharemania.us/threads/sting-1985-the-dream-of-the-blue-turtles-24bit-44-1khz.228837/]]></link>
                <description><![CDATA[<article>
<blockquote class="messageText SelectQuoteContainer ugc baseHtml">
thanks
<div class="messageTextEndMarker">&nbsp;</div>
</blockquote>
</article>]]></description>
                <author><![CDATA[XRB80]]></author>
                </item>

                
                <item>
                <title><![CDATA[【Bugs!】Kim Sejeong - «Top or Cliff» (Performance Video) [Bugs! 2160p]]]></title>
                <link><![CDATA[https://sharemania.us/threads/kim-sejeong-%C2%ABtop-or-cliff%C2%BB-performance-video-bugs-2160p.228834/]]></link>
                <description><![CDATA[<article>
<blockquote class="messageText SelectQuoteContainer ugc baseHtml">
<div style="text-align: center"><img src="https://imgur.com/LsftnRY" class="bbCodeImage LbImage" alt="[​IMG]" data-url="https://imgur.com/LsftnRY" style=""><br>
<br>
<b>Performer:</b> <b>Sting<br>
<b>Album:</b> <b>The Dream of the Blue Turtles<br>
<b>Published:</b> 1985<br>
Country:UK<br>
<b>Genre:</b> <b>Pop Rock/Jazz Fusion/Art Rock/Soft Rock<br>
File Size:</b> 1,5GB</b></b><br>
<br>
<b><b>Track listing:<br>
<br>
1. If You Love Somebody Set Them Free<br>
2. Love Is The Seventh Wave<br>
3. Russians<br>
4. Children’s Crusade<br>
5. Shadows In The Rain<br>
6. We Work The Black Seam<br>
7. Consider Me Gone<br>
8. The Dream Of The Blue Turtles<br>
9. Moon Over Bourbon Street<br>
10. Fortress Around Your Heart<br>
<br>
<a href="https://filedot.to/srbzuz5jg4on" target="_blank" class="externalLink" rel="nofollow">https://filedot.to/srbzuz5jg4on</a></b></b>​</div>
<div class="messageTextEndMarker">&nbsp;</div>
</blockquote>
</article>]]></description>
                <author><![CDATA[WithLoveSNSD]]></author>
                </item>

                
                <item>
                <title><![CDATA[【Cinema Center】SERIES - Hannah Montana - Complete Season 4 (Forever) [AMZN WEB-DL] (1080p) + Bonuses]]></title>
                <link><![CDATA[https://sharemania.us/threads/hannah-montana-complete-season-4-forever-amzn-web-dl-1080p-bonuses.228836/]]></link>
                <description><![CDATA[<article>
<blockquote class="messageText SelectQuoteContainer ugc baseHtml">
<div style="text-align: center"><img src="https://i.imgur.com/lD7KLnq.jpg" class="bbCodeImage LbImage" alt="[​IMG]" data-url="https://i.imgur.com/lD7KLnq.jpg" style=""> <br>
<br>
<img src="https://i.imgur.com/W6HOQhY.jpg" class="bbCodeImage LbImage" alt="[​IMG]" data-url="https://i.imgur.com/W6HOQhY.jpg" style=""> <br>
<div class="ToggleTriggerAnchor bbCodeSpoilerContainer">
<button type="button" class="button bbCodeSpoilerButton ToggleTrigger Tooltip JsOnly" data-target="> .SpoilerTarget"><span>Spoiler: <span class="SpoilerTitle">Media Info</span></span></button>
<div class="SpoilerTarget bbCodeSpoilerText">
<div class="bbCodeBlock bbCodeQuote">
<aside>
<blockquote class="quoteContainer"><div class="quote">General<br>
Complete name : KIM SEJEONG - Top or Cliff (Performance Video) (Bugs!).mp4<br>
Format : MPEG-4<br>
Format profile : Base Media / Version 2<br>
Codec ID : mp42 (mp42/mp41)<br>
File size : 1.07 GiB<br>
Duration : 3 min 50 s<br>
Overall bit rate mode : Variable<br>
Overall bit rate : 39.8 Mb/s<br>
Frame rate : 23.976 FPS<br>
Encoded date : 2023-09-07 08:57:42 UTC<br>
Tagged date : 2023-09-07 09:07:43 UTC<br>
TIM : 01:00:00:00<br>
TSC : 24000<br>
TSZ : 1001<br>
<br>
Video<br>
ID : 1<br>
Format : AVC<br>
Format/Info : Advanced Video Codec<br>
Format profile : High@L5.2<br>
Format settings : CABAC / 4 Ref Frames<br>
Format settings, CABAC : Yes<br>
Format settings, Reference : 4 frames<br>
Format settings, GOP : M=3, N=23<br>
Codec ID : avc1<br>
Codec ID/Info : Advanced Video Coding<br>
Duration : 3 min 50 s<br>
Bit rate : 39.4 Mb/s<br>
Width : 3 840 pixels<br>
Height : 2 160 pixels<br>
Display aspect ratio : 16:9<br>
Frame rate mode : Constant<br>
Frame rate : 23.976 (24000/1001) FPS<br>
Color space : YUV<br>
Chroma subsampling : 4:2:0<br>
Bit depth : 8 bits<br>
Scan type : Progressive<br>
Bits/(Pixel*Frame) : 0.198<br>
Stream size : 1.06 GiB (99%)<br>
Language : English<br>
Encoded date : 2023-09-07 08:57:46 UTC<br>
Tagged date : 2023-09-07 08:57:46 UTC<br>
Color range : Limited<br>
Color primaries : BT.709<br>
Transfer characteristics : BT.709<br>
Matrix coefficients : BT.709<br>
Codec configuration box : avcC<br>
<br>
Audio<br>
ID : 2<br>
Format : AAC LC<br>
Format/Info : Advanced Audio Codec Low Complexity<br>
Codec ID : mp4a-40-2<br>
Duration : 3 min 50 s<br>
Source duration : 3 min 50 s<br>
Bit rate mode : Variable<br>
Bit rate : 317 kb/s<br>
Maximum bit rate : 486 kb/s<br>
Channel(s) : 2 channels<br>
Channel layout : L R<br>
Sampling rate : 48.0 kHz<br>
Frame rate : 46.875 FPS (1024 SPF)<br>
Compression mode : Lossy<br>
Stream size : 8.71 MiB (1%)<br>
Source stream size : 8.71 MiB (1%)<br>
Language : English<br>
Encoded date : 2023-09-07 08:57:44 UTC<br>
Tagged date : 2023-09-07 08:57:44 UTC</div><div class="quoteExpand">Click to expand...</div></blockquote>
</aside>
</div></div>
</div><b><span style="font-family: 'Book Antiqua'"><span style="font-size: 26px">
<div class="ToggleTriggerAnchor bbCodeSpoilerContainer">
<button type="button" class="button bbCodeSpoilerButton ToggleTrigger Tooltip JsOnly" data-target="> .SpoilerTarget"><span>Spoiler: <span class="SpoilerTitle">Credits</span></span></button>
<div class="SpoilerTarget bbCodeSpoilerText"><span style="color: rgb(179, 179, 0)">Original Uploader</span> - <span style="color: rgb(0, 255, 0)">frizzy</span> from <span style="color: rgb(0, 128, 255)">Jpopsuki</span></div>
</div></span></span></b><span style="font-family: 'Book Antiqua'"><span style="font-size: 15px"><span data-s9e-mediaembed="youtube" style="display:inline-block;width:100%;max-width:640px"><span style="display:block;overflow:hidden;position:relative;padding-bottom:56.25%"><iframe allowfullscreen="" loading="lazy" scrolling="no" style="background:url(https://i.ytimg.com/vi/NkeExG9jEfM/hqdefault.jpg) 50% 50% / cover;border:0;height:100%;left:0;position:absolute;width:100%" src="https://www.youtube.com/embed/NkeExG9jEfM"></iframe></span></span></span></span><span style="font-size: 15px">
<div class="bbCodeBlock bbCodeVfcHH HiddenContent">
<div class="attribution type">Hidden Content:</div>
<blockquote>You must reply before you can see the hidden data contained here.</blockquote>
</div></span>​</div>
<div class="messageTextEndMarker">&nbsp;</div>
</blockquote>
</article>]]></description>
                <author><![CDATA[lovedante]]></author>
                </item>

                </channel></rss>